<svg xmlns="http://www.w3.org/2000/svg" xmlns:xlink="http://www.w3.org/1999/xlink" width="1200" height="689.59"><rect width="1200" height="689.59" rx="5" ry="5" class="a"/><svg y="0%" x="0%"><circle cx="20" cy="20" r="6" fill="#ff5f58"/><circle cx="40" cy="20" r="6" fill="#ffbd2e"/><circle cx="60" cy="20" r="6" fill="#18c132"/></svg><svg height="629.59" viewBox="0 0 116 62.959" width="1160" x="15" xmlns="http://www.w3.org/2000/svg" xmlns:xlink="http://www.w3.org/1999/xlink" y="50"><style>@keyframes l{0%{transform:translateX(-116px)}5.3%{transform:translateX(-232px)}6.9%{transform:translateX(-348px)}7.8%{transform:translateX(-464px)}9.6%{transform:translateX(-580px)}11.3%{transform:translateX(-696px)}12.7%{transform:translateX(-812px)}13.7%{transform:translateX(-928px)}16.4%{transform:translateX(-1044px)}18.3%{transform:translateX(-1160px)}19.4%{transform:translateX(-1276px)}20.3%{transform:translateX(-1392px)}21.1%{transform:translateX(-1508px)}23.1%{transform:translateX(-1624px)}27%{transform:translateX(-1740px)}27.2%{transform:translateX(-1856px)}36%{transform:translateX(-2320px)}52.2%{transform:translateX(-2436px)}52.3%{transform:translateX(-2552px)}60.3%{transform:translateX(-3828px)}60.4%{transform:translateX(-4176px)}60.9%{transform:translateX(-4292px)}61.7%{transform:translateX(-4408px)}61.8%{transform:translateX(-4524px)}62.2%{transform:translateX(-4640px)}62.7%{transform:translateX(-4756px)}63.1%{transform:translateX(-4872px)}63.6%{transform:translateX(-4988px)}64%{transform:translateX(-5104px)}64.5%{transform:translateX(-5568px)}65.2%{transform:translateX(-5684px)}65.3%{transform:translateX(-5916px)}66.2%{transform:translateX(-6148px)}67.5%{transform:translateX(-6380px)}71.7%{transform:translateX(-6496px)}72.9%{transform:translateX(-6612px)}to{transform:translateX(-6728px)}}.a{fill:#282d35}.f{fill:#b9c0cb;white-space:pre}.g{fill:#a8cc8c}.g,.h,.i,.o{white-space:pre}.h{fill:#b9c0cb;font-weight:700}.i,.o{fill:#6f7783}.o{fill:#66c2cd}</style><g font-family="Monaco,Consolas,Menlo,'Bitstream Vera Sans Mono','Powerline Symbols',monospace" font-size="1.67"><defs><symbol id="1"><text y="1.67" class="f">/home/example/demo</text><text x="19.038" y="1.67" class="f">$</text><text x="21.042" y="1.67" class="f">airlock</text></symbol><symbol id="2"><text y="1.67" class="f">/home/example/demo</text><text x="19.038" y="1.67" class="f">$</text><text x="21.042" y="1.67" class="f">airlock</text><text x="29.058" y="1.67" class="f">start</text></symbol><symbol id="3"><text y="1.67" class="g">✔</text><text x="2.004" y="1.67" class="h">No</text><text x="5.01" y="1.67" class="h">airlock.toml</text><text x="18.036" y="1.67" class="h">found</text><text x="24.048" y="1.67" class="h">in</text><text x="27.054" y="1.67" class="h">/home/example/demo</text><text x="46.092" y="1.67" class="i">·</text><text x="48.096" y="1.67" class="g">Initialize</text><text x="59.118" y="1.67" class="g">with</text><text x="64.128" y="1.67" class="g">defaults</text></symbol><symbol id="4"><text y="1.67" class="f">Created</text><text x="8.016" y="1.67" class="f">airlock.toml</text><text x="21.042" y="1.67" class="f">in</text><text x="24.048" y="1.67" class="f">/home/example/demo</text></symbol><symbol id="5"><text y="1.67" class="f">Preparing</text><text x="10.02" y="1.67" class="f">sandbox...</text></symbol><symbol id="6"><text x="2.004" y="1.67" class="g">✔</text><text x="4.008" y="1.67" class="f">config</text><text x="11.022" y="1.67" class="f">loaded,</text><text x="19.038" y="1.67" class="f">image:</text><text x="26.052" y="1.67" class="f">alpine:latest</text></symbol><symbol id="7"><text x="2.004" y="1.67" class="g">✔</text><text x="4.008" y="1.67" class="f">ca</text><text x="7.014" y="1.67" class="f">cert</text><text x="12.024" y="1.67" class="f">generated</text></symbol><symbol id="8"><text x="2.004" y="1.67" class="g">✔</text><text x="4.008" y="1.67" class="f">image</text><text x="10.02" y="1.67" class="f">resolved</text><text x="19.038" y="1.67" class="f">docker.io/library/alpine:latest@sha256:1529d13528ed</text></symbol><symbol id="9"><text x="2.004" y="1.67" class="g">✔</text><text x="4.008" y="1.67" class="f">downloaded</text><text x="15.03" y="1.67" class="f">1</text><text x="17.034" y="1.67" class="f">layers,</text><text x="25.05" y="1.67" class="f">4.0MB</text></symbol><symbol id="10"><text x="2.004" y="1.67" class="f">⠁</text><text x="4.008" y="1.67" class="f">extracting</text><text x="15.03" y="1.67" class="f">layers...</text></symbol><symbol id="11"><text x="2.004" y="1.67" class="g">✔</text><text x="4.008" y="1.67" class="f">extracted</text><text x="14.028" y="1.67" class="f">layers</text></symbol><symbol id="12"><text x="2.004" y="1.67" class="g">✔</text><text x="4.008" y="1.67" class="f">environment</text><text x="16.032" y="1.67" class="f">ready</text></symbol><symbol id="13"><text x="2.004" y="1.67" class="g">✔</text><text x="4.008" y="1.67" class="f">image</text><text x="10.02" y="1.67" class="f">resolved</text><text x="19.038" y="1.67" class="f">via</text><text x="23.046" y="1.67" class="f">docker</text><text x="30.06" y="1.67" class="f">sha256:1ab49c19c53e</text></symbol><symbol id="14"><text y="1.67" class="f">Booting</text><text x="8.016" y="1.67" class="f">VM...</text></symbol><symbol id="15"><text x="2.004" y="1.67" class="g">✔</text><text x="4.008" y="1.67" class="f">disk</text><text x="9.018" y="1.67" class="f">created</text><text x="17.034" y="1.67" class="f">10</text><text x="20.04" y="1.67" class="f">GB</text></symbol><symbol id="16"><text x="2.004" y="1.67" class="f">•</text><text x="4.008" y="1.67" class="f">cpus:</text><text x="12.024" y="1.67" class="f">10</text></symbol><symbol id="17"><text x="2.004" y="1.67" class="f">•</text><text x="4.008" y="1.67" class="f">memory:</text><text x="12.024" y="1.67" class="f">32</text><text x="15.03" y="1.67" class="f">GiB</text></symbol><symbol id="18"><text x="2.004" y="1.67" class="f">•</text><text x="4.008" y="1.67" class="f">disk:</text><text x="12.024" y="1.67" class="f">0</text><text x="14.028" y="1.67" class="f">KB</text><text x="17.034" y="1.67" class="f">/</text><text x="19.038" y="1.67" class="f">10.0</text><text x="24.048" y="1.67" class="f">GB</text></symbol><symbol id="a"><path fill="transparent" d="M0 0h116v29H0z"/></symbol><symbol id="b"><path fill="#6f7683" d="M0 0h1.102v2.171H0z"/></symbol></defs><path class="a" d="M0 0h116v62.959H0z"/><g style="animation-duration:11.067s;animation-iteration-count:infinite;animation-name:l;animation-timing-function:steps(1,end)"><svg width="6844"><svg><use xlink:href="#a"/><use xlink:href="#b" x="-.004"/></svg><svg x="116"><use xlink:href="#a"/><use xlink:href="#b" x="20.996"/><text y="1.67" class="f">/home/example/demo</text><text x="19.038" y="1.67" class="f">$</text></svg><svg x="232"><use xlink:href="#a"/><use xlink:href="#b" x="21.996"/><text y="1.67" class="f">/home/example/demo</text><text x="19.038" y="1.67" class="f">$</text><text x="21.042" y="1.67" class="f">a</text></svg><svg x="348"><use xlink:href="#a"/><use xlink:href="#b" x="22.996"/><text y="1.67" class="f">/home/example/demo</text><text x="19.038" y="1.67" class="f">$</text><text x="21.042" y="1.67" class="f">ai</text></svg><svg x="464"><use xlink:href="#a"/><use xlink:href="#b" x="23.996"/><text y="1.67" class="f">/home/example/demo</text><text x="19.038" y="1.67" class="f">$</text><text x="21.042" y="1.67" class="f">air</text></svg><svg x="580"><use xlink:href="#a"/><use xlink:href="#b" x="24.996"/><text y="1.67" class="f">/home/example/demo</text><text x="19.038" y="1.67" class="f">$</text><text x="21.042" y="1.67" class="f">airl</text></svg><svg x="696"><use xlink:href="#a"/><use xlink:href="#b" x="25.996"/><text y="1.67" class="f">/home/example/demo</text><text x="19.038" y="1.67" class="f">$</text><text x="21.042" y="1.67" class="f">airlo</text></svg><svg x="812"><use xlink:href="#a"/><use xlink:href="#b" x="26.996"/><text y="1.67" class="f">/home/example/demo</text><text x="19.038" y="1.67" class="f">$</text><text x="21.042" y="1.67" class="f">airloc</text></svg><svg x="928"><use xlink:href="#a"/><use xlink:href="#b" x="27.996"/><use xlink:href="#1"/></svg><svg x="1044"><use xlink:href="#a"/><use xlink:href="#b" x="28.996"/><use xlink:href="#1"/></svg><svg x="1160"><use xlink:href="#a"/><use xlink:href="#b" x="29.996"/><text y="1.67" class="f">/home/example/demo</text><text x="19.038" y="1.67" class="f">$</text><text x="21.042" y="1.67" class="f">airlock</text><text x="29.058" y="1.67" class="f">s</text></svg><svg x="1276"><use xlink:href="#a"/><use xlink:href="#b" x="30.996"/><text y="1.67" class="f">/home/example/demo</text><text x="19.038" y="1.67" class="f">$</text><text x="21.042" y="1.67" class="f">airlock</text><text x="29.058" y="1.67" class="f">st</text></svg><svg x="1392"><use xlink:href="#a"/><use xlink:href="#b" x="31.996"/><text y="1.67" class="f">/home/example/demo</text><text x="19.038" y="1.67" class="f">$</text><text x="21.042" y="1.67" class="f">airlock</text><text x="29.058" y="1.67" class="f">sta</text></svg><svg x="1508"><use xlink:href="#a"/><use xlink:href="#b" x="32.996"/><text y="1.67" class="f">/home/example/demo</text><text x="19.038" y="1.67" class="f">$</text><text x="21.042" y="1.67" class="f">airlock</text><text x="29.058" y="1.67" class="f">star</text></svg><svg x="1624"><use xlink:href="#a"/><use xlink:href="#b" x="33.996"/><use xlink:href="#2"/></svg><svg x="1740"><use xlink:href="#a"/><use xlink:href="#b" x="-.004" y="2.146"/><use xlink:href="#2"/></svg><svg x="1856"><use xlink:href="#a"/><use xlink:href="#2"/><text y="3.841" style="white-space:pre" fill="#dbab79">?</text><text x="2.004" y="3.841" class="h">No</text><text x="5.01" y="3.841" class="h">airlock.toml</text><text x="18.036" y="3.841" class="h">found</text><text x="24.048" y="3.841" class="h">in</text><text x="27.054" y="3.841" class="h">/home/example/demo</text><text x="46.092" y="3.841" class="i">›</text><text y="6.012" class="g">❯</text><text x="2.004" y="6.012" class="o">Initialize</text><text x="13.026" y="6.012" class="o">with</text><text x="18.036" y="6.012" class="o">defaults</text><text x="2.004" y="8.183" class="f">Cancel</text></svg><svg x="1972"><use xlink:href="#a"/><use xlink:href="#2"/></svg><svg x="2088"><use xlink:href="#a"/><use xlink:href="#b" x="-.004" y="4.317"/><use xlink:href="#2"/><use xlink:href="#3" y="2.171"/></svg><svg x="2204"><use xlink:href="#a"/><use xlink:href="#b" x="-.004" y="6.488"/><use xlink:href="#2"/><use xlink:href="#3" y="2.171"/><use xlink:href="#4" y="4.342"/></svg><svg x="2320"><use xlink:href="#a"/><use xlink:href="#b" x="-.004" y="13.001"/><use xlink:href="#2"/><use xlink:href="#3" y="2.171"/><use xlink:href="#4" y="4.342"/><use xlink:href="#5" y="6.513"/><use xlink:href="#6" y="8.684"/><use xlink:href="#7" y="10.855"/></svg><svg x="2436"><use xlink:href="#a"/><use xlink:href="#b" x="-.004" y="15.172"/><use xlink:href="#2"/><use xlink:href="#3" y="2.171"/><use xlink:href="#4" y="4.342"/><use xlink:href="#5" y="6.513"/><use xlink:href="#6" y="8.684"/><use xlink:href="#7" y="10.855"/><use xlink:href="#8" y="13.026"/></svg><svg x="2552"><use xlink:href="#a"/><use xlink:href="#b" x="65.996" y="15.172"/><use xlink:href="#2"/><use xlink:href="#3" y="2.171"/><use xlink:href="#4" y="4.342"/><use xlink:href="#5" y="6.513"/><use xlink:href="#6" y="8.684"/><use xlink:href="#7" y="10.855"/><use xlink:href="#8" y="13.026"/><text x="2.004" y="16.867" class="f">downloading</text><text x="14.028" y="16.867" class="f">[</text><text x="45.09" y="16.867" class="f">]</text><text x="47.094" y="16.867" class="f">0</text><text x="49.098" y="16.867" class="f">B/4.00</text><text x="56.112" y="16.867" class="f">MiB</text><text x="60.12" y="16.867" class="f">0</text><text x="62.124" y="16.867" class="f">B/s</text></svg><svg x="2668"><use xlink:href="#a"/><use xlink:href="#b" x="77.996" y="15.172"/><use xlink:href="#2"/><use xlink:href="#3" y="2.171"/><use xlink:href="#4" y="4.342"/><use xlink:href="#5" y="6.513"/><use xlink:href="#6" y="8.684"/><use xlink:href="#7" y="10.855"/><use xlink:href="#8" y="13.026"/><text x="2.004" y="16.867" class="f">downloading</text><text x="14.028" y="16.867" class="f">[&gt;</text><text x="45.09" y="16.867" class="f">]</text><text x="47.094" y="16.867" class="f">1.34</text><text x="52.104" y="16.867" class="f">KiB/4.00</text><text x="61.122" y="16.867" class="f">MiB</text><text x="65.13" y="16.867" class="f">1.50</text><text x="70.14" y="16.867" class="f">KiB/s</text></svg><svg x="2784"><use xlink:href="#a"/><use xlink:href="#b" x="77.996" y="15.172"/><use xlink:href="#2"/><use xlink:href="#3" y="2.171"/><use xlink:href="#4" y="4.342"/><use xlink:href="#5" y="6.513"/><use xlink:href="#6" y="8.684"/><use xlink:href="#7" y="10.855"/><use xlink:href="#8" y="13.026"/><text x="2.004" y="16.867" class="f">downloading</text><text x="14.028" y="16.867" class="f">[&gt;</text><text x="45.09" y="16.867" class="f">]</text><text x="47.094" y="16.867" class="f">2.67</text><text x="52.104" y="16.867" class="f">KiB/4.00</text><text x="61.122" y="16.867" class="f">MiB</text><text x="65.13" y="16.867" class="f">1.51</text><text x="70.14" y="16.867" class="f">KiB/s</text></svg><svg x="2900"><use xlink:href="#a"/><use xlink:href="#b" x="77.996" y="15.172"/><use xlink:href="#2"/><use xlink:href="#3" y="2.171"/><use xlink:href="#4" y="4.342"/><use xlink:href="#5" y="6.513"/><use xlink:href="#6" y="8.684"/><use xlink:href="#7" y="10.855"/><use xlink:href="#8" y="13.026"/><text x="2.004" y="16.867" class="f">downloading</text><text x="14.028" y="16.867" class="f">[&gt;</text><text x="45.09" y="16.867" class="f">]</text><text x="47.094" y="16.867" class="f">4.01</text><text x="52.104" y="16.867" class="f">KiB/4.00</text><text x="61.122" y="16.867" class="f">MiB</text><text x="65.13" y="16.867" class="f">1.51</text><text x="70.14" y="16.867" class="f">KiB/s</text></svg><svg x="3016"><use xlink:href="#a"/><use xlink:href="#b" x="77.996" y="15.172"/><use xlink:href="#2"/><use xlink:href="#3" y="2.171"/><use xlink:href="#4" y="4.342"/><use xlink:href="#5" y="6.513"/><use xlink:href="#6" y="8.684"/><use xlink:href="#7" y="10.855"/><use xlink:href="#8" y="13.026"/><text x="2.004" y="16.867" class="f">downloading</text><text x="14.028" y="16.867" class="f">[&gt;</text><text x="45.09" y="16.867" class="f">]</text><text x="47.094" y="16.867" class="f">5.35</text><text x="52.104" y="16.867" class="f">KiB/4.00</text><text x="61.122" y="16.867" class="f">MiB</text><text x="65.13" y="16.867" class="f">1.51</text><text x="70.14" y="16.867" class="f">KiB/s</text></svg><svg x="3132"><use xlink:href="#a"/><use xlink:href="#b" x="77.996" y="15.172"/><use xlink:href="#2"/><use xlink:href="#3" y="2.171"/><use xlink:href="#4" y="4.342"/><use xlink:href="#5" y="6.513"/><use xlink:href="#6" y="8.684"/><use xlink:href="#7" y="10.855"/><use xlink:href="#8" y="13.026"/><text x="2.004" y="16.867" class="f">downloading</text><text x="14.028" y="16.867" class="f">[&gt;</text><text x="45.09" y="16.867" class="f">]</text><text x="47.094" y="16.867" class="f">9.36</text><text x="52.104" y="16.867" class="f">KiB/4.00</text><text x="61.122" y="16.867" class="f">MiB</text><text x="65.13" y="16.867" class="f">1.52</text><text x="70.14" y="16.867" class="f">KiB/s</text></svg><svg x="3248"><use xlink:href="#a"/><use xlink:href="#b" x="77.996" y="15.172"/><use xlink:href="#2"/><use xlink:href="#3" y="2.171"/><use xlink:href="#4" y="4.342"/><use xlink:href="#5" y="6.513"/><use xlink:href="#6" y="8.684"/><use xlink:href="#7" y="10.855"/><use xlink:href="#8" y="13.026"/><text x="2.004" y="16.867" class="f">downloading</text><text x="14.028" y="16.867" class="f">[&gt;</text><text x="45.09" y="16.867" class="f">]</text><text x="47.094" y="16.867" class="f">13.37</text><text x="53.106" y="16.867" class="f">KiB/4.00</text><text x="62.124" y="16.867" class="f">MiB</text><text x="66.132" y="16.867" class="f">1.52</text><text x="71.142" y="16.867" class="f">KiB/s</text></svg><svg x="3364"><use xlink:href="#a"/><use xlink:href="#b" x="77.996" y="15.172"/><use xlink:href="#2"/><use xlink:href="#3" y="2.171"/><use xlink:href="#4" y="4.342"/><use xlink:href="#5" y="6.513"/><use xlink:href="#6" y="8.684"/><use xlink:href="#7" y="10.855"/><use xlink:href="#8" y="13.026"/><text x="2.004" y="16.867" class="f">downloading</text><text x="14.028" y="16.867" class="f">[&gt;</text><text x="45.09" y="16.867" class="f">]</text><text x="47.094" y="16.867" class="f">14.71</text><text x="53.106" y="16.867" class="f">KiB/4.00</text><text x="62.124" y="16.867" class="f">MiB</text><text x="66.132" y="16.867" class="f">1.53</text><text x="71.142" y="16.867" class="f">KiB/s</text></svg><svg x="3480"><use xlink:href="#a"/><use xlink:href="#b" x="77.996" y="15.172"/><use xlink:href="#2"/><use xlink:href="#3" y="2.171"/><use xlink:href="#4" y="4.342"/><use xlink:href="#5" y="6.513"/><use xlink:href="#6" y="8.684"/><use xlink:href="#7" y="10.855"/><use xlink:href="#8" y="13.026"/><text x="2.004" y="16.867" class="f">downloading</text><text x="14.028" y="16.867" class="f">[&gt;</text><text x="45.09" y="16.867" class="f">]</text><text x="47.094" y="16.867" class="f">16.04</text><text x="53.106" y="16.867" class="f">KiB/4.00</text><text x="62.124" y="16.867" class="f">MiB</text><text x="66.132" y="16.867" class="f">1.53</text><text x="71.142" y="16.867" class="f">KiB/s</text></svg><svg x="3596"><use xlink:href="#a"/><use xlink:href="#b" x="77.996" y="15.172"/><use xlink:href="#2"/><use xlink:href="#3" y="2.171"/><use xlink:href="#4" y="4.342"/><use xlink:href="#5" y="6.513"/><use xlink:href="#6" y="8.684"/><use xlink:href="#7" y="10.855"/><use xlink:href="#8" y="13.026"/><text x="2.004" y="16.867" class="f">downloading</text><text x="14.028" y="16.867" class="f">[&gt;</text><text x="45.09" y="16.867" class="f">]</text><text x="47.094" y="16.867" class="f">17.38</text><text x="53.106" y="16.867" class="f">KiB/4.00</text><text x="62.124" y="16.867" class="f">MiB</text><text x="66.132" y="16.867" class="f">1.54</text><text x="71.142" y="16.867" class="f">KiB/s</text></svg><svg x="3712"><use xlink:href="#a"/><use xlink:href="#b" x="77.996" y="15.172"/><use xlink:href="#2"/><use xlink:href="#3" y="2.171"/><use xlink:href="#4" y="4.342"/><use xlink:href="#5" y="6.513"/><use xlink:href="#6" y="8.684"/><use xlink:href="#7" y="10.855"/><use xlink:href="#8" y="13.026"/><text x="2.004" y="16.867" class="f">downloading</text><text x="14.028" y="16.867" class="f">[&gt;</text><text x="45.09" y="16.867" class="f">]</text><text x="47.094" y="16.867" class="f">18.72</text><text x="53.106" y="16.867" class="f">KiB/4.00</text><text x="62.124" y="16.867" class="f">MiB</text><text x="66.132" y="16.867" class="f">1.54</text><text x="71.142" y="16.867" class="f">KiB/s</text></svg><svg x="3828"><use xlink:href="#a"/><use xlink:href="#b" x="77.996" y="15.172"/><use xlink:href="#2"/><use xlink:href="#3" y="2.171"/><use xlink:href="#4" y="4.342"/><use xlink:href="#5" y="6.513"/><use xlink:href="#6" y="8.684"/><use xlink:href="#7" y="10.855"/><use xlink:href="#8" y="13.026"/><text x="2.004" y="16.867" class="f">downloading</text><text x="14.028" y="16.867" class="f">[&gt;</text><text x="45.09" y="16.867" class="f">]</text><text x="47.094" y="16.867" class="f">28.08</text><text x="53.106" y="16.867" class="f">KiB/4.00</text><text x="62.124" y="16.867" class="f">MiB</text><text x="66.132" y="16.867" class="f">1.56</text><text x="71.142" y="16.867" class="f">KiB/s</text></svg><svg x="3944"><use xlink:href="#a"/><use xlink:href="#b" x="77.996" y="15.172"/><use xlink:href="#2"/><use xlink:href="#3" y="2.171"/><use xlink:href="#4" y="4.342"/><use xlink:href="#5" y="6.513"/><use xlink:href="#6" y="8.684"/><use xlink:href="#7" y="10.855"/><use xlink:href="#8" y="13.026"/><text x="2.004" y="16.867" class="f">downloading</text><text x="14.028" y="16.867" class="f">[&gt;</text><text x="45.09" y="16.867" class="f">]</text><text x="47.094" y="16.867" class="f">34.76</text><text x="53.106" y="16.867" class="f">KiB/4.00</text><text x="62.124" y="16.867" class="f">MiB</text><text x="66.132" y="16.867" class="f">1.82</text><text x="71.142" y="16.867" class="f">KiB/s</text></svg><svg x="4060"><use xlink:href="#a"/><use xlink:href="#b" x="77.996" y="15.172"/><use xlink:href="#2"/><use xlink:href="#3" y="2.171"/><use xlink:href="#4" y="4.342"/><use xlink:href="#5" y="6.513"/><use xlink:href="#6" y="8.684"/><use xlink:href="#7" y="10.855"/><use xlink:href="#8" y="13.026"/><text x="2.004" y="16.867" class="f">downloading</text><text x="14.028" y="16.867" class="f">[&gt;</text><text x="45.09" y="16.867" class="f">]</text><text x="47.094" y="16.867" class="f">41.44</text><text x="53.106" y="16.867" class="f">KiB/4.00</text><text x="62.124" y="16.867" class="f">MiB</text><text x="66.132" y="16.867" class="f">1.89</text><text x="71.142" y="16.867" class="f">KiB/s</text></svg><svg x="4176"><use xlink:href="#a"/><use xlink:href="#b" x="77.996" y="15.172"/><use xlink:href="#2"/><use xlink:href="#3" y="2.171"/><use xlink:href="#4" y="4.342"/><use xlink:href="#5" y="6.513"/><use xlink:href="#6" y="8.684"/><use xlink:href="#7" y="10.855"/><use xlink:href="#8" y="13.026"/><text x="2.004" y="16.867" class="f">downloading</text><text x="14.028" y="16.867" class="f">[&gt;</text><text x="45.09" y="16.867" class="f">]</text><text x="47.094" y="16.867" class="f">78.26</text><text x="53.106" y="16.867" class="f">KiB/4.00</text><text x="62.124" y="16.867" class="f">MiB</text><text x="66.132" y="16.867" class="f">2.03</text><text x="71.142" y="16.867" class="f">KiB/s</text></svg><svg x="4292"><use xlink:href="#a"/><use xlink:href="#b" x="77.996" y="15.172"/><use xlink:href="#2"/><use xlink:href="#3" y="2.171"/><use xlink:href="#4" y="4.342"/><use xlink:href="#5" y="6.513"/><use xlink:href="#6" y="8.684"/><use xlink:href="#7" y="10.855"/><use xlink:href="#8" y="13.026"/><text x="2.004" y="16.867" class="f">downloading</text><text x="14.028" y="16.867" class="f">[==&gt;</text><text x="45.09" y="16.867" class="f">]</text><text x="47.094" y="16.867" class="f">400.00</text><text x="54.108" y="16.867" class="f">KiB/4.00</text><text x="63.126" y="16.867" class="f">MiB</text><text x="67.134" y="16.867" class="f">17.28</text><text x="73.146" y="16.867" class="f">KiB/s</text></svg><svg x="4408"><use xlink:href="#a"/><use xlink:href="#b" x="77.996" y="15.172"/><use xlink:href="#2"/><use xlink:href="#3" y="2.171"/><use xlink:href="#4" y="4.342"/><use xlink:href="#5" y="6.513"/><use xlink:href="#6" y="8.684"/><use xlink:href="#7" y="10.855"/><use xlink:href="#8" y="13.026"/><text x="2.004" y="16.867" class="f">downloading</text><text x="14.028" y="16.867" class="f">[===&gt;</text><text x="45.09" y="16.867" class="f">]</text><text x="47.094" y="16.867" class="f">448.00</text><text x="54.108" y="16.867" class="f">KiB/4.00</text><text x="63.126" y="16.867" class="f">MiB</text><text x="67.134" y="16.867" class="f">60.08</text><text x="73.146" y="16.867" class="f">KiB/s</text></svg><svg x="4524"><use xlink:href="#a"/><use xlink:href="#b" x="77.996" y="15.172"/><use xlink:href="#2"/><use xlink:href="#3" y="2.171"/><use xlink:href="#4" y="4.342"/><use xlink:href="#5" y="6.513"/><use xlink:href="#6" y="8.684"/><use xlink:href="#7" y="10.855"/><use xlink:href="#8" y="13.026"/><text x="2.004" y="16.867" class="f">downloading</text><text x="14.028" y="16.867" class="f">[====&gt;</text><text x="45.09" y="16.867" class="f">]</text><text x="47.094" y="16.867" class="f">624.00</text><text x="54.108" y="16.867" class="f">KiB/4.00</text><text x="63.126" y="16.867" class="f">MiB</text><text x="67.134" y="16.867" class="f">62.23</text><text x="73.146" y="16.867" class="f">KiB/s</text></svg><svg x="4640"><use xlink:href="#a"/><use xlink:href="#b" x="77.996" y="15.172"/><use xlink:href="#2"/><use xlink:href="#3" y="2.171"/><use xlink:href="#4" y="4.342"/><use xlink:href="#5" y="6.513"/><use xlink:href="#6" y="8.684"/><use xlink:href="#7" y="10.855"/><use xlink:href="#8" y="13.026"/><text x="2.004" y="16.867" class="f">downloading</text><text x="14.028" y="16.867" class="f">[========&gt;</text><text x="45.09" y="16.867" class="f">]</text><text x="47.094" y="16.867" class="f">1.11</text><text x="52.104" y="16.867" class="f">MiB/4.00</text><text x="61.122" y="16.867" class="f">MiB</text><text x="65.13" y="16.867" class="f">102.57</text><text x="72.144" y="16.867" class="f">KiB/s</text></svg><svg x="4756"><use xlink:href="#a"/><use xlink:href="#b" x="77.996" y="15.172"/><use xlink:href="#2"/><use xlink:href="#3" y="2.171"/><use xlink:href="#4" y="4.342"/><use xlink:href="#5" y="6.513"/><use xlink:href="#6" y="8.684"/><use xlink:href="#7" y="10.855"/><use xlink:href="#8" y="13.026"/><text x="2.004" y="16.867" class="f">downloading</text><text x="14.028" y="16.867" class="f">[============&gt;</text><text x="45.09" y="16.867" class="f">]</text><text x="47.094" y="16.867" class="f">1.69</text><text x="52.104" y="16.867" class="f">MiB/4.00</text><text x="61.122" y="16.867" class="f">MiB</text><text x="65.13" y="16.867" class="f">164.73</text><text x="72.144" y="16.867" class="f">KiB/s</text></svg><svg x="4872"><use xlink:href="#a"/><use xlink:href="#b" x="77.996" y="15.172"/><use xlink:href="#2"/><use xlink:href="#3" y="2.171"/><use xlink:href="#4" y="4.342"/><use xlink:href="#5" y="6.513"/><use xlink:href="#6" y="8.684"/><use xlink:href="#7" y="10.855"/><use xlink:href="#8" y="13.026"/><text x="2.004" y="16.867" class="f">downloading</text><text x="14.028" y="16.867" class="f">[================&gt;</text><text x="45.09" y="16.867" class="f">]</text><text x="47.094" y="16.867" class="f">2.25</text><text x="52.104" y="16.867" class="f">MiB/4.00</text><text x="61.122" y="16.867" class="f">MiB</text><text x="65.13" y="16.867" class="f">240.16</text><text x="72.144" y="16.867" class="f">KiB/s</text></svg><svg x="4988"><use xlink:href="#a"/><use xlink:href="#b" x="77.996" y="15.172"/><use xlink:href="#2"/><use xlink:href="#3" y="2.171"/><use xlink:href="#4" y="4.342"/><use xlink:href="#5" y="6.513"/><use xlink:href="#6" y="8.684"/><use xlink:href="#7" y="10.855"/><use xlink:href="#8" y="13.026"/><text x="2.004" y="16.867" class="f">downloading</text><text x="14.028" y="16.867" class="f">[=====================&gt;</text><text x="45.09" y="16.867" class="f">]</text><text x="47.094" y="16.867" class="f">2.81</text><text x="52.104" y="16.867" class="f">MiB/4.00</text><text x="61.122" y="16.867" class="f">MiB</text><text x="65.13" y="16.867" class="f">329.47</text><text x="72.144" y="16.867" class="f">KiB/s</text></svg><svg x="5104"><use xlink:href="#a"/><use xlink:href="#b" x="77.996" y="15.172"/><use xlink:href="#2"/><use xlink:href="#3" y="2.171"/><use xlink:href="#4" y="4.342"/><use xlink:href="#5" y="6.513"/><use xlink:href="#6" y="8.684"/><use xlink:href="#7" y="10.855"/><use xlink:href="#8" y="13.026"/><text x="2.004" y="16.867" class="f">downloading</text><text x="14.028" y="16.867" class="f">[=========================&gt;</text><text x="45.09" y="16.867" class="f">]</text><text x="47.094" y="16.867" class="f">3.36</text><text x="52.104" y="16.867" class="f">MiB/4.00</text><text x="61.122" y="16.867" class="f">MiB</text><text x="65.13" y="16.867" class="f">425.45</text><text x="72.144" y="16.867" class="f">KiB/s</text></svg><svg x="5220"><use xlink:href="#a"/><use xlink:href="#b" x="77.996" y="15.172"/><use xlink:href="#2"/><use xlink:href="#3" y="2.171"/><use xlink:href="#4" y="4.342"/><use xlink:href="#5" y="6.513"/><use xlink:href="#6" y="8.684"/><use xlink:href="#7" y="10.855"/><use xlink:href="#8" y="13.026"/><text x="2.004" y="16.867" class="f">downloading</text><text x="14.028" y="16.867" class="f">[=============================&gt;]</text><text x="47.094" y="16.867" class="f">3.92</text><text x="52.104" y="16.867" class="f">MiB/4.00</text><text x="61.122" y="16.867" class="f">MiB</text><text x="65.13" y="16.867" class="f">530.63</text><text x="72.144" y="16.867" class="f">KiB/s</text></svg><svg x="5336"><use xlink:href="#a"/><use xlink:href="#b" x="-.004" y="17.343"/><use xlink:href="#2"/><use xlink:href="#3" y="2.171"/><use xlink:href="#4" y="4.342"/><use xlink:href="#5" y="6.513"/><use xlink:href="#6" y="8.684"/><use xlink:href="#7" y="10.855"/><use xlink:href="#8" y="13.026"/><use xlink:href="#9" y="15.197"/></svg><svg x="5452"><use xlink:href="#a"/><use xlink:href="#b" x="23.996" y="17.343"/><use xlink:href="#2"/><use xlink:href="#3" y="2.171"/><use xlink:href="#4" y="4.342"/><use xlink:href="#5" y="6.513"/><use xlink:href="#6" y="8.684"/><use xlink:href="#7" y="10.855"/><use xlink:href="#8" y="13.026"/><use xlink:href="#9" y="15.197"/><use xlink:href="#10" y="17.368"/></svg><svg x="5568"><use xlink:href="#a"/><use xlink:href="#b" x="23.996" y="17.343"/><use xlink:href="#2"/><use xlink:href="#3" y="2.171"/><use xlink:href="#4" y="4.342"/><use xlink:href="#5" y="6.513"/><use xlink:href="#6" y="8.684"/><use xlink:href="#7" y="10.855"/><use xlink:href="#8" y="13.026"/><use xlink:href="#9" y="15.197"/><use xlink:href="#10" y="17.368"/></svg><svg x="5684"><use xlink:href="#a"/><use xlink:href="#b" x="-.004" y="19.514"/><use xlink:href="#2"/><use xlink:href="#3" y="2.171"/><use xlink:href="#4" y="4.342"/><use xlink:href="#5" y="6.513"/><use xlink:href="#6" y="8.684"/><use xlink:href="#7" y="10.855"/><use xlink:href="#8" y="13.026"/><use xlink:href="#9" y="15.197"/><use xlink:href="#11" y="17.368"/></svg><svg x="5800"><use xlink:href="#a"/><use xlink:href="#b" x="-.004" y="21.685"/><use xlink:href="#2"/><use xlink:href="#3" y="2.171"/><use xlink:href="#4" y="4.342"/><use xlink:href="#5" y="6.513"/><use xlink:href="#6" y="8.684"/><use xlink:href="#7" y="10.855"/><use xlink:href="#8" y="13.026"/><use xlink:href="#9" y="15.197"/><use xlink:href="#11" y="17.368"/><use xlink:href="#12" y="19.539"/></svg><svg x="5916"><use xlink:href="#a"/><use xlink:href="#b" x="-.004" y="28.198"/><use xlink:href="#2"/><use xlink:href="#3" y="2.171"/><use xlink:href="#4" y="4.342"/><use xlink:href="#5" y="6.513"/><use xlink:href="#6" y="8.684"/><use xlink:href="#7" y="10.855"/><use xlink:href="#8" y="13.026"/><use xlink:href="#9" y="15.197"/><use xlink:href="#11" y="17.368"/><use xlink:href="#12" y="19.539"/><use xlink:href="#5" y="21.71"/><use xlink:href="#6" y="23.881"/><use xlink:href="#7" y="26.052"/></svg><svg x="6032"><use xlink:href="#a"/><use xlink:href="#b" x="-.004" y="30.369"/><use xlink:href="#2"/><use xlink:href="#3" y="2.171"/><use xlink:href="#4" y="4.342"/><use xlink:href="#5" y="6.513"/><use xlink:href="#6" y="8.684"/><use xlink:href="#7" y="10.855"/><use xlink:href="#8" y="13.026"/><use xlink:href="#9" y="15.197"/><use xlink:href="#11" y="17.368"/><use xlink:href="#12" y="19.539"/><use xlink:href="#5" y="21.71"/><use xlink:href="#6" y="23.881"/><use xlink:href="#7" y="26.052"/><use xlink:href="#13" y="28.223"/></svg><svg x="6148"><use xlink:href="#a"/><use xlink:href="#b" x="-.004" y="32.54"/><use xlink:href="#2"/><use xlink:href="#3" y="2.171"/><use xlink:href="#4" y="4.342"/><use xlink:href="#5" y="6.513"/><use xlink:href="#6" y="8.684"/><use xlink:href="#7" y="10.855"/><use xlink:href="#8" y="13.026"/><use xlink:href="#9" y="15.197"/><use xlink:href="#11" y="17.368"/><use xlink:href="#12" y="19.539"/><use xlink:href="#5" y="21.71"/><use xlink:href="#6" y="23.881"/><use xlink:href="#7" y="26.052"/><use xlink:href="#13" y="28.223"/><use xlink:href="#12" y="30.394"/></svg><svg x="6264"><use xlink:href="#a"/><use xlink:href="#b" x="-.004" y="34.711"/><use xlink:href="#2"/><use xlink:href="#3" y="2.171"/><use xlink:href="#4" y="4.342"/><use xlink:href="#5" y="6.513"/><use xlink:href="#6" y="8.684"/><use xlink:href="#7" y="10.855"/><use xlink:href="#8" y="13.026"/><use xlink:href="#9" y="15.197"/><use xlink:href="#11" y="17.368"/><use xlink:href="#12" y="19.539"/><use xlink:href="#5" y="21.71"/><use xlink:href="#6" y="23.881"/><use xlink:href="#7" y="26.052"/><use xlink:href="#13" y="28.223"/><use xlink:href="#12" y="30.394"/><use xlink:href="#14" y="32.565"/></svg><svg x="6380"><use xlink:href="#a"/><use xlink:href="#b" x="-.004" y="41.224"/><use xlink:href="#2"/><use xlink:href="#3" y="2.171"/><use xlink:href="#4" y="4.342"/><use xlink:href="#5" y="6.513"/><use xlink:href="#6" y="8.684"/><use xlink:href="#7" y="10.855"/><use xlink:href="#8" y="13.026"/><use xlink:href="#9" y="15.197"/><use xlink:href="#11" y="17.368"/><use xlink:href="#12" y="19.539"/><use xlink:href="#5" y="21.71"/><use xlink:href="#6" y="23.881"/><use xlink:href="#7" y="26.052"/><use xlink:href="#13" y="28.223"/><use xlink:href="#12" y="30.394"/><use xlink:href="#14" y="32.565"/><use xlink:href="#15" y="34.736"/><use xlink:href="#16" y="36.907"/><use xlink:href="#17" y="39.078"/></svg><svg x="6496"><use xlink:href="#a"/><use xlink:href="#b" x="-.004" y="43.395"/><use xlink:href="#2"/><use xlink:href="#3" y="2.171"/><use xlink:href="#4" y="4.342"/><use xlink:href="#5" y="6.513"/><use xlink:href="#6" y="8.684"/><use xlink:href="#7" y="10.855"/><use xlink:href="#8" y="13.026"/><use xlink:href="#9" y="15.197"/><use xlink:href="#11" y="17.368"/><use xlink:href="#12" y="19.539"/><use xlink:href="#5" y="21.71"/><use xlink:href="#6" y="23.881"/><use xlink:href="#7" y="26.052"/><use xlink:href="#13" y="28.223"/><use xlink:href="#12" y="30.394"/><use xlink:href="#14" y="32.565"/><use xlink:href="#15" y="34.736"/><use xlink:href="#16" y="36.907"/><use xlink:href="#17" y="39.078"/><use xlink:href="#18" y="41.249"/></svg><svg x="6612"><use xlink:href="#a"/><use xlink:href="#b" x="20.996" y="43.395"/><use xlink:href="#2"/><use xlink:href="#3" y="2.171"/><use xlink:href="#4" y="4.342"/><use xlink:href="#5" y="6.513"/><use xlink:href="#6" y="8.684"/><use xlink:href="#7" y="10.855"/><use xlink:href="#8" y="13.026"/><use xlink:href="#9" y="15.197"/><use xlink:href="#11" y="17.368"/><use xlink:href="#12" y="19.539"/><use xlink:href="#5" y="21.71"/><use xlink:href="#6" y="23.881"/><use xlink:href="#7" y="26.052"/><use xlink:href="#13" y="28.223"/><use xlink:href="#12" y="30.394"/><use xlink:href="#14" y="32.565"/><use xlink:href="#15" y="34.736"/><use xlink:href="#16" y="36.907"/><use xlink:href="#17" y="39.078"/><use xlink:href="#18" y="41.249"/><text y="45.09" class="f">/home/example/demo</text><text x="19.038" y="45.09" class="f">#</text></svg><svg x="6728"><use xlink:href="#a"/><use xlink:href="#b" x="41.996" y="43.395"/><use xlink:href="#2"/><use xlink:href="#3" y="2.171"/><use xlink:href="#4" y="4.342"/><use xlink:href="#5" y="6.513"/><use xlink:href="#6" y="8.684"/><use xlink:href="#7" y="10.855"/><use xlink:href="#8" y="13.026"/><use xlink:href="#9" y="15.197"/><use xlink:href="#11" y="17.368"/><use xlink:href="#12" y="19.539"/><use xlink:href="#5" y="21.71"/><use xlink:href="#6" y="23.881"/><use xlink:href="#7" y="26.052"/><use xlink:href="#13" y="28.223"/><use xlink:href="#12" y="30.394"/><use xlink:href="#14" y="32.565"/><use xlink:href="#15" y="34.736"/><use xlink:href="#16" y="36.907"/><use xlink:href="#17" y="39.078"/><use xlink:href="#18" y="41.249"/><text y="45.09" class="f">/home/example/demo</text><text x="19.038" y="45.09" class="f">#</text><text x="21.042" y="45.09" class="f">/home/example/demo</text><text x="40.08" y="45.09" class="f">#</text></svg></svg></g></g></svg></svg>